<svg xmlns="http://www.w3.org/2000/svg"  viewBox="0 0 512 512" width="512" height="512">
  <style>
.contrast-stroke {stroke: #191717; fill: white;}
    .bgs {fill:white;}
    @media (prefers-color-scheme: dark) {    
        .contrast-stroke {
            stroke: white;
            fill:black
        }
        .bgs {
            fill:#191717; 
        }
    }
  </style>
  <g >
    <circle class='bgs' cx="256" cy="256" r="256"/>
    <path class='contrast-stroke' stroke-width="19" d="M424 88L410.268 106.27L382.805 145.095L341.611 199.905L291.262 263.851L238.624 325.514L185.987 378.041L147.396 408.848C142.642 412.644 137.29 415.624 131.559 417.666L118.202 422.426C111.827 424.698 104.783 424.12 98.8642 420.838V420.838C91.8322 416.94 87.2731 409.725 86.7705 401.701L85.8073 386.322C85.4637 380.836 85.997 375.331 87.3872 370.013L93.8395 345.331C97.2851 332.15 102.001 319.335 107.921 307.065L115.919 290.49C124.476 272.755 134.331 255.677 145.403 239.393L154.22 226.428C166.227 208.77 179.507 192.011 193.953 176.285L205.418 163.804C216.849 151.36 229.451 140.045 243.049 130.015L257.074 119.67C269.117 110.788 282.431 103.775 296.568 98.868L311.311 93.7509C322.222 89.9635 333.834 88.6255 345.322 89.8322L346.188 89.9232C362.53 91.6398 377.877 98.6037 389.929 109.772V109.772C398.784 117.977 405.558 128.173 409.692 139.515L413.981 151.286C419.095 165.32 421.711 180.142 421.711 195.079V207.453C421.711 223.675 419.718 239.836 415.776 255.572L412.207 269.815C407.876 287.102 401.663 303.863 393.68 319.797L388.945 329.246C380.331 346.438 369 362.128 355.389 375.711L350.301 380.788C338.5 392.563 324.68 402.122 309.499 409.008L307.118 410.088C290.635 417.565 272.744 421.432 254.644 421.432V421.432C236.545 421.432 218.654 417.565 202.171 410.088L199.79 409.008C184.608 402.122 170.788 392.563 158.988 380.788L152.815 374.627C139.907 361.747 128.95 347.05 120.29 331.002L115.932 322.925C106.221 304.928 98.7948 285.79 93.8253 265.953L92.6918 261.429C87.7813 241.828 85.6836 221.629 86.4619 201.437L86.9162 189.651C87.3548 178.269 89.3311 166.999 92.7911 156.148L97.0772 142.705C101.341 129.333 109.215 117.398 119.831 108.217V108.217C131.611 98.0291 146.23 91.6954 161.719 90.0684L163.352 89.8968C175.244 88.6476 187.266 90.0327 198.562 93.9537L212.721 98.868C226.857 103.775 240.172 110.788 252.214 119.67L266.239 130.015C279.838 140.045 292.44 151.36 303.871 163.804L313.365 174.14C329.115 191.285 343.372 209.745 355.981 229.317L378.228 263.851L400.87 310.778C405.603 320.587 409.576 330.745 412.753 341.163L421.344 369.333C423.1 375.091 423.807 381.118 423.431 387.126L422.529 401.535C422.019 409.663 417.401 416.97 410.279 420.919V420.919C404.438 424.157 397.508 424.8 391.171 422.693L377.199 418.045C370.319 415.756 363.934 412.185 358.384 407.521L323.302 378.041L270.664 325.514L218.027 263.851L167.678 199.905L126.483 145.095L96.7315 106.27L83 88"/>
  </g>
</svg>
